<svg width="349" height="65" viewBox="0 0 349 65" fill="none" xmlns="http://www.w3.org/2000/svg">
<path d="M106.4 14H111.85V36.35H112.1L116.15 32.2L123.4 25.2H129.85L119.4 35.35L131 51H124.45L115.45 38.45L111.85 41.8V51H106.4V14ZM148.53 51.6C146.564 51.6 144.797 51.2833 143.23 50.65C141.664 50.0167 140.347 49.1167 139.28 47.95C138.214 46.7833 137.397 45.3833 136.83 43.75C136.264 42.0833 135.98 40.2167 135.98 38.15C135.98 36.0833 136.264 34.2167 136.83 32.55C137.43 30.8833 138.247 29.4667 139.28 28.3C140.347 27.1 141.63 26.1833 143.13 25.55C144.63 24.9167 146.297 24.6 148.13 24.6C149.93 24.6 151.564 24.9167 153.03 25.55C154.497 26.15 155.747 27.0167 156.78 28.15C157.814 29.2833 158.597 30.6333 159.13 32.2C159.697 33.7667 159.98 35.5 159.98 37.4V39.45H141.48V40.3C141.48 42.3333 142.114 44 143.38 45.3C144.647 46.5667 146.397 47.2 148.63 47.2C150.297 47.2 151.714 46.85 152.88 46.15C154.08 45.4167 155.047 44.45 155.78 43.25L159.18 46.25C158.314 47.75 156.98 49.0167 155.18 50.05C153.414 51.0833 151.197 51.6 148.53 51.6ZM148.13 28.75C147.164 28.75 146.264 28.9167 145.43 29.25C144.63 29.5833 143.93 30.0667 143.33 30.7C142.764 31.3 142.314 32.0167 141.98 32.85C141.647 33.6833 141.48 34.6 141.48 35.6V35.95H154.43V35.45C154.43 33.4167 153.847 31.8 152.68 30.6C151.547 29.3667 150.03 28.75 148.13 28.75ZM179.511 51.6C177.544 51.6 175.778 51.2833 174.211 50.65C172.644 50.0167 171.328 49.1167 170.261 47.95C169.194 46.7833 168.378 45.3833 167.811 43.75C167.244 42.0833 166.961 40.2167 166.961 38.15C166.961 36.0833 167.244 34.2167 167.811 32.55C168.411 30.8833 169.228 29.4667 170.261 28.3C171.328 27.1 172.611 26.1833 174.111 25.55C175.611 24.9167 177.278 24.6 179.111 24.6C180.911 24.6 182.544 24.9167 184.011 25.55C185.478 26.15 186.728 27.0167 187.761 28.15C188.794 29.2833 189.578 30.6333 190.111 32.2C190.678 33.7667 190.961 35.5 190.961 37.4V39.45H172.461V40.3C172.461 42.3333 173.094 44 174.361 45.3C175.628 46.5667 177.378 47.2 179.611 47.2C181.278 47.2 182.694 46.85 183.861 46.15C185.061 45.4167 186.028 44.45 186.761 43.25L190.161 46.25C189.294 47.75 187.961 49.0167 186.161 50.05C184.394 51.0833 182.178 51.6 179.511 51.6ZM179.111 28.75C178.144 28.75 177.244 28.9167 176.411 29.25C175.611 29.5833 174.911 30.0667 174.311 30.7C173.744 31.3 173.294 32.0167 172.961 32.85C172.628 33.6833 172.461 34.6 172.461 35.6V35.95H185.411V35.45C185.411 33.4167 184.828 31.8 183.661 30.6C182.528 29.3667 181.011 28.75 179.111 28.75ZM198.891 14H204.341V29.6H204.641C205.408 28.0333 206.425 26.8167 207.691 25.95C208.958 25.05 210.541 24.6 212.441 24.6C215.475 24.6 217.891 25.7333 219.691 28C221.491 30.2667 222.391 33.6333 222.391 38.1C222.391 42.5667 221.491 45.9333 219.691 48.2C217.891 50.4667 215.475 51.6 212.441 51.6C210.541 51.6 208.958 51.1667 207.691 50.3C206.425 49.4 205.408 48.1667 204.641 46.6H204.341V51H198.891V14ZM210.191 47.15C212.258 47.15 213.841 46.5167 214.941 45.25C216.075 43.9833 216.641 42.3 216.641 40.2V36C216.641 33.9 216.075 32.2167 214.941 30.95C213.841 29.6833 212.258 29.05 210.191 29.05C209.391 29.05 208.641 29.15 207.941 29.35C207.241 29.55 206.625 29.85 206.091 30.25C205.558 30.65 205.125 31.15 204.791 31.75C204.491 32.3167 204.341 33 204.341 33.8V42.4C204.341 43.2 204.491 43.9 204.791 44.5C205.125 45.0667 205.558 45.55 206.091 45.95C206.625 46.35 207.241 46.65 207.941 46.85C208.641 47.05 209.391 47.15 210.191 47.15ZM242.472 51C240.205 51 238.539 50.4 237.472 49.2C236.405 47.9667 235.872 46.3833 235.872 44.45V29.6H227.922V25.2H233.572C234.539 25.2 235.222 25.0167 235.622 24.65C236.022 24.25 236.222 23.55 236.222 22.55V16.1H241.322V25.2H252.322V29.6H241.322V46.6H252.322V51H242.472ZM279.452 25.2H284.952L272.452 56C271.786 57.6667 270.902 58.9167 269.802 59.75C268.736 60.5833 267.186 61 265.152 61H260.802V56.6H266.902L269.252 50.65L258.852 25.2H264.552L268.652 36L271.852 44.85H272.152L275.352 36L279.452 25.2ZM291.833 25.2H297.283V29.6H297.583C298.349 28.0333 299.366 26.8167 300.633 25.95C301.899 25.05 303.483 24.6 305.383 24.6C308.416 24.6 310.833 25.7333 312.633 28C314.433 30.2667 315.333 33.6333 315.333 38.1C315.333 42.5667 314.433 45.9333 312.633 48.2C310.833 50.4667 308.416 51.6 305.383 51.6C303.483 51.6 301.899 51.1667 300.633 50.3C299.366 49.4 298.349 48.1667 297.583 46.6H297.283V61H291.833V25.2ZM303.133 47.15C305.199 47.15 306.783 46.5167 307.883 45.25C309.016 43.9833 309.583 42.3 309.583 40.2V36C309.583 33.9 309.016 32.2167 307.883 30.95C306.783 29.6833 305.199 29.05 303.133 29.05C302.333 29.05 301.583 29.15 300.883 29.35C300.183 29.55 299.566 29.85 299.033 30.25C298.499 30.65 298.066 31.15 297.733 31.75C297.433 32.3167 297.283 33 297.283 33.8V42.4C297.283 43.2 297.433 43.9 297.733 44.5C298.066 45.0667 298.499 45.55 299.033 45.95C299.566 46.35 300.183 46.65 300.883 46.85C301.583 47.05 302.333 47.15 303.133 47.15ZM334.413 51.6C332.447 51.6 330.68 51.2833 329.113 50.65C327.547 50.0167 326.23 49.1167 325.163 47.95C324.097 46.7833 323.28 45.3833 322.713 43.75C322.147 42.0833 321.863 40.2167 321.863 38.15C321.863 36.0833 322.147 34.2167 322.713 32.55C323.313 30.8833 324.13 29.4667 325.163 28.3C326.23 27.1 327.513 26.1833 329.013 25.55C330.513 24.9167 332.18 24.6 334.013 24.6C335.813 24.6 337.447 24.9167 338.913 25.55C340.38 26.15 341.63 27.0167 342.663 28.15C343.697 29.2833 344.48 30.6333 345.013 32.2C345.58 33.7667 345.863 35.5 345.863 37.4V39.45H327.363V40.3C327.363 42.3333 327.997 44 329.263 45.3C330.53 46.5667 332.28 47.2 334.513 47.2C336.18 47.2 337.597 46.85 338.763 46.15C339.963 45.4167 340.93 44.45 341.663 43.25L345.063 46.25C344.197 47.75 342.863 49.0167 341.063 50.05C339.297 51.0833 337.08 51.6 334.413 51.6ZM334.013 28.75C333.047 28.75 332.147 28.9167 331.313 29.25C330.513 29.5833 329.813 30.0667 329.213 30.7C328.647 31.3 328.197 32.0167 327.863 32.85C327.53 33.6833 327.363 34.6 327.363 35.6V35.95H340.313V35.45C340.313 33.4167 339.73 31.8 338.563 30.6C337.43 29.3667 335.913 28.75 334.013 28.75Z" fill="white"/>
<path fill-rule="evenodd" clip-rule="evenodd" d="M5 8.5C2.23858 8.5 0 10.7386 0 13.5V51.5C0 54.2614 2.23858 56.5 5 56.5H83C85.7614 56.5 88 54.2614 88 51.5V13.5C88 10.7386 85.7614 8.5 83 8.5H5ZM8 13.5C6.34315 13.5 5 14.8431 5 16.5V49.5C5 51.1569 6.34315 52.5 8 52.5H80C81.6569 52.5 83 51.1569 83 49.5V16.5C83 14.8431 81.6569 13.5 80 13.5H8Z" fill="#CEE6F3"/>
<path d="M21 41.5C21 40.9477 21.4477 40.5 22 40.5H66C66.5523 40.5 67 40.9477 67 41.5V44.5C67 45.0523 66.5523 45.5 66 45.5H22C21.4477 45.5 21 45.0523 21 44.5V41.5Z" fill="#CEE6F3"/>
<path d="M9 41.5C9 40.9477 9.44772 40.5 10 40.5H16C16.5523 40.5 17 40.9477 17 41.5V44.5C17 45.0523 16.5523 45.5 16 45.5H10C9.44772 45.5 9 45.0523 9 44.5V41.5Z" fill="#CEE6F3"/>
<path d="M9 31.5C9 30.9477 9.44772 30.5 10 30.5H22C22.5523 30.5 23 30.9477 23 31.5V34.5C23 35.0523 22.5523 35.5 22 35.5H10C9.44772 35.5 9 35.0523 9 34.5V31.5Z" fill="#CEE6F3"/>
<path d="M29 31.5C29 30.9477 29.4477 30.5 30 30.5H33C33.5523 30.5 34 30.9477 34 31.5V34.5C34 35.0523 33.5523 35.5 33 35.5H30C29.4477 35.5 29 35.0523 29 34.5V31.5Z" fill="#CEE6F3"/>
<path d="M62 31.5C62 30.9477 62.4477 30.5 63 30.5H66C66.5523 30.5 67 30.9477 67 31.5V34.5C67 35.0523 66.5523 35.5 66 35.5H63C62.4477 35.5 62 35.0523 62 34.5V31.5Z" fill="#CEE6F3"/>
<path d="M51 31.5C51 30.9477 51.4477 30.5 52 30.5H55C55.5523 30.5 56 30.9477 56 31.5V34.5C56 35.0523 55.5523 35.5 55 35.5H52C51.4477 35.5 51 35.0523 51 34.5V31.5Z" fill="#CEE6F3"/>
<path d="M40 31.5C40 30.9477 40.4477 30.5 41 30.5H44C44.5523 30.5 45 30.9477 45 31.5V34.5C45 35.0523 44.5523 35.5 44 35.5H41C40.4477 35.5 40 35.0523 40 34.5V31.5Z" fill="#CEE6F3"/>
<path d="M9 22.5C9 21.9477 9.44772 21.5 10 21.5H17C17.5523 21.5 18 21.9477 18 22.5V25.5C18 26.0523 17.5523 26.5 17 26.5H10C9.44772 26.5 9 26.0523 9 25.5V22.5Z" fill="#CEE6F3"/>
<path d="M46 22.5C46 21.9477 46.4477 21.5 47 21.5H50C50.5523 21.5 51 21.9477 51 22.5V25.5C51 26.0523 50.5523 26.5 50 26.5H47C46.4477 26.5 46 26.0523 46 25.5V22.5Z" fill="#CEE6F3"/>
<path d="M67 22.5C67 21.9477 67.4477 21.5 68 21.5H77C77.5523 21.5 78 21.9477 78 22.5V25.5C78 26.0523 77.5523 26.5 77 26.5H68C67.4477 26.5 67 26.0523 67 25.5V22.5Z" fill="#CEE6F3"/>
<path d="M57 22.5C57 21.9477 57.4477 21.5 58 21.5H61C61.5523 21.5 62 21.9477 62 22.5V25.5C62 26.0523 61.5523 26.5 61 26.5H58C57.4477 26.5 57 26.0523 57 25.5V22.5Z" fill="#CEE6F3"/>
<path d="M35 22.5C35 21.9477 35.4477 21.5 36 21.5H39C39.5523 21.5 40 21.9477 40 22.5V25.5C40 26.0523 39.5523 26.5 39 26.5H36C35.4477 26.5 35 26.0523 35 25.5V22.5Z" fill="#CEE6F3"/>
<path d="M24 22.5C24 21.9477 24.4477 21.5 25 21.5H28C28.5523 21.5 29 21.9477 29 22.5V25.5C29 26.0523 28.5523 26.5 28 26.5H25C24.4477 26.5 24 26.0523 24 25.5V22.5Z" fill="#CEE6F3"/>
<path d="M71 41.5C71 40.9477 71.4477 40.5 72 40.5H78C78.5523 40.5 79 40.9477 79 41.5V44.5C79 45.0523 78.5523 45.5 78 45.5H72C71.4477 45.5 71 45.0523 71 44.5V41.5Z" fill="#CEE6F3"/>
<path d="M73 22.5C73 21.9477 73.4477 21.5 74 21.5H78C78.5523 21.5 79 21.9477 79 22.5V34.5C79 35.0523 78.5523 35.5 78 35.5H74C73.4477 35.5 73 35.0523 73 34.5V22.5Z" fill="#CEE6F3"/>
</svg>
