<svg width="800" height="275" viewBox="0 0 800 275" fill="none" xmlns="http://www.w3.org/2000/svg">
<path d="M0 0H800V275H0V0Z" fill="#222831"/>
<path d="M349.4 119H354.85V141.35H355.1L359.15 137.2L366.4 130.2H372.85L362.4 140.35L374 156H367.45L358.45 143.45L354.85 146.8V156H349.4V119ZM391.53 156.6C389.564 156.6 387.797 156.283 386.23 155.65C384.664 155.017 383.347 154.117 382.28 152.95C381.214 151.783 380.397 150.383 379.83 148.75C379.264 147.083 378.98 145.217 378.98 143.15C378.98 141.083 379.264 139.217 379.83 137.55C380.43 135.883 381.247 134.467 382.28 133.3C383.347 132.1 384.63 131.183 386.13 130.55C387.63 129.917 389.297 129.6 391.13 129.6C392.93 129.6 394.564 129.917 396.03 130.55C397.497 131.15 398.747 132.017 399.78 133.15C400.814 134.283 401.597 135.633 402.13 137.2C402.697 138.767 402.98 140.5 402.98 142.4V144.45H384.48V145.3C384.48 147.333 385.114 149 386.38 150.3C387.647 151.567 389.397 152.2 391.63 152.2C393.297 152.2 394.714 151.85 395.88 151.15C397.08 150.417 398.047 149.45 398.78 148.25L402.18 151.25C401.314 152.75 399.98 154.017 398.18 155.05C396.414 156.083 394.197 156.6 391.53 156.6ZM391.13 133.75C390.164 133.75 389.264 133.917 388.43 134.25C387.63 134.583 386.93 135.067 386.33 135.7C385.764 136.3 385.314 137.017 384.98 137.85C384.647 138.683 384.48 139.6 384.48 140.6V140.95H397.43V140.45C397.43 138.417 396.847 136.8 395.68 135.6C394.547 134.367 393.03 133.75 391.13 133.75ZM422.511 156.6C420.544 156.6 418.778 156.283 417.211 155.65C415.644 155.017 414.328 154.117 413.261 152.95C412.194 151.783 411.378 150.383 410.811 148.75C410.244 147.083 409.961 145.217 409.961 143.15C409.961 141.083 410.244 139.217 410.811 137.55C411.411 135.883 412.228 134.467 413.261 133.3C414.328 132.1 415.611 131.183 417.111 130.55C418.611 129.917 420.278 129.6 422.111 129.6C423.911 129.6 425.544 129.917 427.011 130.55C428.478 131.15 429.728 132.017 430.761 133.15C431.794 134.283 432.578 135.633 433.111 137.2C433.678 138.767 433.961 140.5 433.961 142.4V144.45H415.461V145.3C415.461 147.333 416.094 149 417.361 150.3C418.628 151.567 420.378 152.2 422.611 152.2C424.278 152.2 425.694 151.85 426.861 151.15C428.061 150.417 429.028 149.45 429.761 148.25L433.161 151.25C432.294 152.75 430.961 154.017 429.161 155.05C427.394 156.083 425.178 156.6 422.511 156.6ZM422.111 133.75C421.144 133.75 420.244 133.917 419.411 134.25C418.611 134.583 417.911 135.067 417.311 135.7C416.744 136.3 416.294 137.017 415.961 137.85C415.628 138.683 415.461 139.6 415.461 140.6V140.95H428.411V140.45C428.411 138.417 427.828 136.8 426.661 135.6C425.528 134.367 424.011 133.75 422.111 133.75ZM441.891 119H447.341V134.6H447.641C448.408 133.033 449.425 131.817 450.691 130.95C451.958 130.05 453.541 129.6 455.441 129.6C458.475 129.6 460.891 130.733 462.691 133C464.491 135.267 465.391 138.633 465.391 143.1C465.391 147.567 464.491 150.933 462.691 153.2C460.891 155.467 458.475 156.6 455.441 156.6C453.541 156.6 451.958 156.167 450.691 155.3C449.425 154.4 448.408 153.167 447.641 151.6H447.341V156H441.891V119ZM453.191 152.15C455.258 152.15 456.841 151.517 457.941 150.25C459.075 148.983 459.641 147.3 459.641 145.2V141C459.641 138.9 459.075 137.217 457.941 135.95C456.841 134.683 455.258 134.05 453.191 134.05C452.391 134.05 451.641 134.15 450.941 134.35C450.241 134.55 449.625 134.85 449.091 135.25C448.558 135.65 448.125 136.15 447.791 136.75C447.491 137.317 447.341 138 447.341 138.8V147.4C447.341 148.2 447.491 148.9 447.791 149.5C448.125 150.067 448.558 150.55 449.091 150.95C449.625 151.35 450.241 151.65 450.941 151.85C451.641 152.05 452.391 152.15 453.191 152.15ZM485.472 156C483.205 156 481.539 155.4 480.472 154.2C479.405 152.967 478.872 151.383 478.872 149.45V134.6H470.922V130.2H476.572C477.539 130.2 478.222 130.017 478.622 129.65C479.022 129.25 479.222 128.55 479.222 127.55V121.1H484.322V130.2H495.322V134.6H484.322V151.6H495.322V156H485.472ZM522.452 130.2H527.952L515.452 161C514.786 162.667 513.902 163.917 512.802 164.75C511.736 165.583 510.186 166 508.152 166H503.802V161.6H509.902L512.252 155.65L501.852 130.2H507.552L511.652 141L514.852 149.85H515.152L518.352 141L522.452 130.2ZM534.833 130.2H540.283V134.6H540.583C541.349 133.033 542.366 131.817 543.633 130.95C544.899 130.05 546.483 129.6 548.383 129.6C551.416 129.6 553.833 130.733 555.633 133C557.433 135.267 558.333 138.633 558.333 143.1C558.333 147.567 557.433 150.933 555.633 153.2C553.833 155.467 551.416 156.6 548.383 156.6C546.483 156.6 544.899 156.167 543.633 155.3C542.366 154.4 541.349 153.167 540.583 151.6H540.283V166H534.833V130.2ZM546.133 152.15C548.199 152.15 549.783 151.517 550.883 150.25C552.016 148.983 552.583 147.3 552.583 145.2V141C552.583 138.9 552.016 137.217 550.883 135.95C549.783 134.683 548.199 134.05 546.133 134.05C545.333 134.05 544.583 134.15 543.883 134.35C543.183 134.55 542.566 134.85 542.033 135.25C541.499 135.65 541.066 136.15 540.733 136.75C540.433 137.317 540.283 138 540.283 138.8V147.4C540.283 148.2 540.433 148.9 540.733 149.5C541.066 150.067 541.499 150.55 542.033 150.95C542.566 151.35 543.183 151.65 543.883 151.85C544.583 152.05 545.333 152.15 546.133 152.15ZM577.413 156.6C575.447 156.6 573.68 156.283 572.113 155.65C570.547 155.017 569.23 154.117 568.163 152.95C567.097 151.783 566.28 150.383 565.713 148.75C565.147 147.083 564.863 145.217 564.863 143.15C564.863 141.083 565.147 139.217 565.713 137.55C566.313 135.883 567.13 134.467 568.163 133.3C569.23 132.1 570.513 131.183 572.013 130.55C573.513 129.917 575.18 129.6 577.013 129.6C578.813 129.6 580.447 129.917 581.913 130.55C583.38 131.15 584.63 132.017 585.663 133.15C586.697 134.283 587.48 135.633 588.013 137.2C588.58 138.767 588.863 140.5 588.863 142.4V144.45H570.363V145.3C570.363 147.333 570.997 149 572.263 150.3C573.53 151.567 575.28 152.2 577.513 152.2C579.18 152.2 580.597 151.85 581.763 151.15C582.963 150.417 583.93 149.45 584.663 148.25L588.063 151.25C587.197 152.75 585.863 154.017 584.063 155.05C582.297 156.083 580.08 156.6 577.413 156.6ZM577.013 133.75C576.047 133.75 575.147 133.917 574.313 134.25C573.513 134.583 572.813 135.067 572.213 135.7C571.647 136.3 571.197 137.017 570.863 137.85C570.53 138.683 570.363 139.6 570.363 140.6V140.95H583.313V140.45C583.313 138.417 582.73 136.8 581.563 135.6C580.43 134.367 578.913 133.75 577.013 133.75Z" fill="white"/>
<path fill-rule="evenodd" clip-rule="evenodd" d="M248 113.5C245.239 113.5 243 115.739 243 118.5V156.5C243 159.261 245.239 161.5 248 161.5H326C328.761 161.5 331 159.261 331 156.5V118.5C331 115.739 328.761 113.5 326 113.5H248ZM251 118.5C249.343 118.5 248 119.843 248 121.5V154.5C248 156.157 249.343 157.5 251 157.5H323C324.657 157.5 326 156.157 326 154.5V121.5C326 119.843 324.657 118.5 323 118.5H251Z" fill="#CEE6F3"/>
<path d="M264 146.5C264 145.948 264.448 145.5 265 145.5H309C309.552 145.5 310 145.948 310 146.5V149.5C310 150.052 309.552 150.5 309 150.5H265C264.448 150.5 264 150.052 264 149.5V146.5Z" fill="#CEE6F3"/>
<path d="M252 146.5C252 145.948 252.448 145.5 253 145.5H259C259.552 145.5 260 145.948 260 146.5V149.5C260 150.052 259.552 150.5 259 150.5H253C252.448 150.5 252 150.052 252 149.5V146.5Z" fill="#CEE6F3"/>
<path d="M252 136.5C252 135.948 252.448 135.5 253 135.5H265C265.552 135.5 266 135.948 266 136.5V139.5C266 140.052 265.552 140.5 265 140.5H253C252.448 140.5 252 140.052 252 139.5V136.5Z" fill="#CEE6F3"/>
<path d="M272 136.5C272 135.948 272.448 135.5 273 135.5H276C276.552 135.5 277 135.948 277 136.5V139.5C277 140.052 276.552 140.5 276 140.5H273C272.448 140.5 272 140.052 272 139.5V136.5Z" fill="#CEE6F3"/>
<path d="M305 136.5C305 135.948 305.448 135.5 306 135.5H309C309.552 135.5 310 135.948 310 136.5V139.5C310 140.052 309.552 140.5 309 140.5H306C305.448 140.5 305 140.052 305 139.5V136.5Z" fill="#CEE6F3"/>
<path d="M294 136.5C294 135.948 294.448 135.5 295 135.5H298C298.552 135.5 299 135.948 299 136.5V139.5C299 140.052 298.552 140.5 298 140.5H295C294.448 140.5 294 140.052 294 139.5V136.5Z" fill="#CEE6F3"/>
<path d="M283 136.5C283 135.948 283.448 135.5 284 135.5H287C287.552 135.5 288 135.948 288 136.5V139.5C288 140.052 287.552 140.5 287 140.5H284C283.448 140.5 283 140.052 283 139.5V136.5Z" fill="#CEE6F3"/>
<path d="M252 127.5C252 126.948 252.448 126.5 253 126.5H260C260.552 126.5 261 126.948 261 127.5V130.5C261 131.052 260.552 131.5 260 131.5H253C252.448 131.5 252 131.052 252 130.5V127.5Z" fill="#CEE6F3"/>
<path d="M289 127.5C289 126.948 289.448 126.5 290 126.5H293C293.552 126.5 294 126.948 294 127.5V130.5C294 131.052 293.552 131.5 293 131.5H290C289.448 131.5 289 131.052 289 130.5V127.5Z" fill="#CEE6F3"/>
<path d="M310 127.5C310 126.948 310.448 126.5 311 126.5H320C320.552 126.5 321 126.948 321 127.5V130.5C321 131.052 320.552 131.5 320 131.5H311C310.448 131.5 310 131.052 310 130.5V127.5Z" fill="#CEE6F3"/>
<path d="M300 127.5C300 126.948 300.448 126.5 301 126.5H304C304.552 126.5 305 126.948 305 127.5V130.5C305 131.052 304.552 131.5 304 131.5H301C300.448 131.5 300 131.052 300 130.5V127.5Z" fill="#CEE6F3"/>
<path d="M278 127.5C278 126.948 278.448 126.5 279 126.5H282C282.552 126.5 283 126.948 283 127.5V130.5C283 131.052 282.552 131.5 282 131.5H279C278.448 131.5 278 131.052 278 130.5V127.5Z" fill="#CEE6F3"/>
<path d="M267 127.5C267 126.948 267.448 126.5 268 126.5H271C271.552 126.5 272 126.948 272 127.5V130.5C272 131.052 271.552 131.5 271 131.5H268C267.448 131.5 267 131.052 267 130.5V127.5Z" fill="#CEE6F3"/>
<path d="M314 146.5C314 145.948 314.448 145.5 315 145.5H321C321.552 145.5 322 145.948 322 146.5V149.5C322 150.052 321.552 150.5 321 150.5H315C314.448 150.5 314 150.052 314 149.5V146.5Z" fill="#CEE6F3"/>
<path d="M316 127.5C316 126.948 316.448 126.5 317 126.5H321C321.552 126.5 322 126.948 322 127.5V139.5C322 140.052 321.552 140.5 321 140.5H317C316.448 140.5 316 140.052 316 139.5V127.5Z" fill="#CEE6F3"/>
</svg>
