<svg width="299" height="64" viewBox="0 0 299 64" fill="none" xmlns="http://www.w3.org/2000/svg">
<path d="M105.388 51V18.88H110.184V37.536H110.272L120.348 28.12H126.464L114.364 39.12L126.948 51H120.832L110.272 40.66H110.184V51H105.388ZM139.627 51.44C135.667 51.44 132.616 50.4133 130.475 48.36C128.334 46.3067 127.263 43.3733 127.263 39.56C127.263 35.864 128.246 32.96 130.211 30.848C132.206 28.736 134.934 27.68 138.395 27.68C141.739 27.68 144.306 28.6773 146.095 30.672C147.914 32.6667 148.823 35.4973 148.823 39.164C148.823 39.5453 148.808 39.9707 148.779 40.44C148.779 40.9093 148.764 41.276 148.735 41.54H129.903V37.8H145.127L144.379 38.944C144.379 36.4507 143.88 34.6027 142.883 33.4C141.886 32.168 140.39 31.552 138.395 31.552C136.283 31.552 134.67 32.1973 133.555 33.488C132.47 34.7787 131.927 36.656 131.927 39.12V40.44C131.927 42.816 132.543 44.5907 133.775 45.764C135.036 46.908 136.928 47.48 139.451 47.48C140.683 47.48 141.988 47.3627 143.367 47.128C144.775 46.864 146.022 46.5267 147.107 46.116L147.723 49.944C146.608 50.4133 145.332 50.78 143.895 51.044C142.487 51.308 141.064 51.44 139.627 51.44ZM164.764 51.44C160.804 51.44 157.753 50.4133 155.612 48.36C153.47 46.3067 152.4 43.3733 152.4 39.56C152.4 35.864 153.382 32.96 155.348 30.848C157.342 28.736 160.07 27.68 163.532 27.68C166.876 27.68 169.442 28.6773 171.232 30.672C173.05 32.6667 173.96 35.4973 173.96 39.164C173.96 39.5453 173.945 39.9707 173.916 40.44C173.916 40.9093 173.901 41.276 173.872 41.54H155.04V37.8H170.264L169.516 38.944C169.516 36.4507 169.017 34.6027 168.02 33.4C167.022 32.168 165.526 31.552 163.532 31.552C161.42 31.552 159.806 32.1973 158.692 33.488C157.606 34.7787 157.064 36.656 157.064 39.12V40.44C157.064 42.816 157.68 44.5907 158.912 45.764C160.173 46.908 162.065 47.48 164.588 47.48C165.82 47.48 167.125 47.3627 168.504 47.128C169.912 46.864 171.158 46.5267 172.244 46.116L172.86 49.944C171.745 50.4133 170.469 50.78 169.032 51.044C167.624 51.308 166.201 51.44 164.764 51.44ZM191.225 51.44C189.671 51.44 188.233 51.1613 186.913 50.604C185.593 50.0467 184.508 49.2693 183.657 48.272H183.569L183.525 51H178.993V18.88H183.745V30.848H183.833C184.655 29.8213 185.711 29.044 187.001 28.516C188.292 27.9587 189.7 27.68 191.225 27.68C194.276 27.68 196.667 28.736 198.397 30.848C200.128 32.9307 200.993 35.8347 200.993 39.56C200.993 43.2853 200.128 46.204 198.397 48.316C196.667 50.3987 194.276 51.44 191.225 51.44ZM190.125 47.48C192.12 47.48 193.645 46.7907 194.701 45.412C195.787 44.0333 196.329 42.0827 196.329 39.56C196.329 37.0373 195.787 35.0867 194.701 33.708C193.645 32.3293 192.12 31.64 190.125 31.64C188.923 31.64 187.837 31.8893 186.869 32.388C185.901 32.8867 185.139 33.576 184.581 34.456C184.024 35.3067 183.745 36.2893 183.745 37.404V41.716C183.745 42.8013 184.024 43.784 184.581 44.664C185.139 45.544 185.901 46.2333 186.869 46.732C187.837 47.2307 188.923 47.48 190.125 47.48ZM215.324 51.44C212.684 51.44 210.778 50.8973 209.604 49.812C208.46 48.6973 207.888 46.8933 207.888 44.4V32.08H202.608V28.12H207.888V20.64H212.684V28.12H220.648V32.08H212.684V43.08C212.684 44.6347 212.948 45.72 213.476 46.336C214.004 46.952 214.943 47.26 216.292 47.26C216.967 47.26 217.642 47.2013 218.316 47.084C219.02 46.9667 219.651 46.8053 220.208 46.6L220.648 50.648C219.71 50.9413 218.8 51.1467 217.92 51.264C217.07 51.3813 216.204 51.44 215.324 51.44ZM228.372 60.24L232.332 50.78L223.18 28.164L228.284 28.12L234.664 45.808H234.752L241.396 28.12H246.5L233.388 60.24H228.372ZM262.339 27.68C265.389 27.68 267.78 28.736 269.511 30.848C271.241 32.9307 272.107 35.8347 272.107 39.56C272.107 43.2853 271.241 46.204 269.511 48.316C267.78 50.3987 265.389 51.44 262.339 51.44C260.813 51.44 259.405 51.1613 258.115 50.604C256.824 50.0467 255.768 49.2693 254.947 48.272H254.859V60.24H250.107V28.12H254.639L254.683 30.848H254.771C255.621 29.8213 256.707 29.044 258.027 28.516C259.347 27.9587 260.784 27.68 262.339 27.68ZM261.239 31.64C260.036 31.64 258.951 31.8893 257.983 32.388C257.015 32.8867 256.252 33.576 255.695 34.456C255.137 35.3067 254.859 36.2893 254.859 37.404V41.716C254.859 42.8013 255.137 43.784 255.695 44.664C256.252 45.544 257.015 46.2333 257.983 46.732C258.951 47.2307 260.036 47.48 261.239 47.48C263.233 47.48 264.759 46.7907 265.815 45.412C266.9 44.0333 267.443 42.0827 267.443 39.56C267.443 37.0373 266.9 35.0867 265.815 33.708C264.759 32.3293 263.233 31.64 261.239 31.64ZM288.127 51.44C284.167 51.44 281.116 50.4133 278.975 48.36C276.834 46.3067 275.763 43.3733 275.763 39.56C275.763 35.864 276.746 32.96 278.711 30.848C280.706 28.736 283.434 27.68 286.895 27.68C290.239 27.68 292.806 28.6773 294.595 30.672C296.414 32.6667 297.323 35.4973 297.323 39.164C297.323 39.5453 297.308 39.9707 297.279 40.44C297.279 40.9093 297.264 41.276 297.235 41.54H278.403V37.8H293.627L292.879 38.944C292.879 36.4507 292.38 34.6027 291.383 33.4C290.386 32.168 288.89 31.552 286.895 31.552C284.783 31.552 283.17 32.1973 282.055 33.488C280.97 34.7787 280.427 36.656 280.427 39.12V40.44C280.427 42.816 281.043 44.5907 282.275 45.764C283.536 46.908 285.428 47.48 287.951 47.48C289.183 47.48 290.488 47.3627 291.867 47.128C293.275 46.864 294.522 46.5267 295.607 46.116L296.223 49.944C295.108 50.4133 293.832 50.78 292.395 51.044C290.987 51.308 289.564 51.44 288.127 51.44Z" fill="white"/>
<path fill-rule="evenodd" clip-rule="evenodd" d="M5 10C2.23858 10 0 12.2386 0 15V53C0 55.7614 2.23858 58 5 58H83C85.7614 58 88 55.7614 88 53V15C88 12.2386 85.7614 10 83 10H5ZM8 15C6.34315 15 5 16.3431 5 18V51C5 52.6569 6.34315 54 8 54H80C81.6569 54 83 52.6569 83 51V18C83 16.3431 81.6569 15 80 15H8Z" fill="#EEBBC3"/>
<path d="M21 43C21 42.4477 21.4477 42 22 42H66C66.5523 42 67 42.4477 67 43V46C67 46.5523 66.5523 47 66 47H22C21.4477 47 21 46.5523 21 46V43Z" fill="#EEBBC3"/>
<path d="M9 43C9 42.4477 9.44772 42 10 42H16C16.5523 42 17 42.4477 17 43V46C17 46.5523 16.5523 47 16 47H10C9.44772 47 9 46.5523 9 46V43Z" fill="#EEBBC3"/>
<path d="M9 33C9 32.4477 9.44772 32 10 32H22C22.5523 32 23 32.4477 23 33V36C23 36.5523 22.5523 37 22 37H10C9.44772 37 9 36.5523 9 36V33Z" fill="#EEBBC3"/>
<path d="M29 33C29 32.4477 29.4477 32 30 32H33C33.5523 32 34 32.4477 34 33V36C34 36.5523 33.5523 37 33 37H30C29.4477 37 29 36.5523 29 36V33Z" fill="#EEBBC3"/>
<path d="M62 33C62 32.4477 62.4477 32 63 32H66C66.5523 32 67 32.4477 67 33V36C67 36.5523 66.5523 37 66 37H63C62.4477 37 62 36.5523 62 36V33Z" fill="#EEBBC3"/>
<path d="M51 33C51 32.4477 51.4477 32 52 32H55C55.5523 32 56 32.4477 56 33V36C56 36.5523 55.5523 37 55 37H52C51.4477 37 51 36.5523 51 36V33Z" fill="#EEBBC3"/>
<path d="M40 33C40 32.4477 40.4477 32 41 32H44C44.5523 32 45 32.4477 45 33V36C45 36.5523 44.5523 37 44 37H41C40.4477 37 40 36.5523 40 36V33Z" fill="#EEBBC3"/>
<path d="M9 24C9 23.4477 9.44772 23 10 23H17C17.5523 23 18 23.4477 18 24V27C18 27.5523 17.5523 28 17 28H10C9.44772 28 9 27.5523 9 27V24Z" fill="#EEBBC3"/>
<path d="M46 24C46 23.4477 46.4477 23 47 23H50C50.5523 23 51 23.4477 51 24V27C51 27.5523 50.5523 28 50 28H47C46.4477 28 46 27.5523 46 27V24Z" fill="#EEBBC3"/>
<path d="M67 24C67 23.4477 67.4477 23 68 23H77C77.5523 23 78 23.4477 78 24V27C78 27.5523 77.5523 28 77 28H68C67.4477 28 67 27.5523 67 27V24Z" fill="#EEBBC3"/>
<path d="M57 24C57 23.4477 57.4477 23 58 23H61C61.5523 23 62 23.4477 62 24V27C62 27.5523 61.5523 28 61 28H58C57.4477 28 57 27.5523 57 27V24Z" fill="#EEBBC3"/>
<path d="M35 24C35 23.4477 35.4477 23 36 23H39C39.5523 23 40 23.4477 40 24V27C40 27.5523 39.5523 28 39 28H36C35.4477 28 35 27.5523 35 27V24Z" fill="#EEBBC3"/>
<path d="M24 24C24 23.4477 24.4477 23 25 23H28C28.5523 23 29 23.4477 29 24V27C29 27.5523 28.5523 28 28 28H25C24.4477 28 24 27.5523 24 27V24Z" fill="#EEBBC3"/>
<path d="M71 43C71 42.4477 71.4477 42 72 42H78C78.5523 42 79 42.4477 79 43V46C79 46.5523 78.5523 47 78 47H72C71.4477 47 71 46.5523 71 46V43Z" fill="#EEBBC3"/>
<path d="M73 24C73 23.4477 73.4477 23 74 23H78C78.5523 23 79 23.4477 79 24V36C79 36.5523 78.5523 37 78 37H74C73.4477 37 73 36.5523 73 36V24Z" fill="#EEBBC3"/>
</svg>
