<svg width="88" height="48" viewBox="0 0 88 48" fill="none" xmlns="http://www.w3.org/2000/svg">
<path fill-rule="evenodd" clip-rule="evenodd" d="M5 0C2.23858 0 0 2.23858 0 5V43C0 45.7614 2.23858 48 5 48H83C85.7614 48 88 45.7614 88 43V5C88 2.23858 85.7614 0 83 0H5ZM8 5C6.34315 5 5 6.34315 5 8V41C5 42.6569 6.34315 44 8 44H80C81.6569 44 83 42.6569 83 41V8C83 6.34315 81.6569 5 80 5H8Z" fill="#EEBBC3"/>
<path d="M21 33C21 32.4477 21.4477 32 22 32H66C66.5523 32 67 32.4477 67 33V36C67 36.5523 66.5523 37 66 37H22C21.4477 37 21 36.5523 21 36V33Z" fill="#EEBBC3"/>
<path d="M9 33C9 32.4477 9.44772 32 10 32H16C16.5523 32 17 32.4477 17 33V36C17 36.5523 16.5523 37 16 37H10C9.44772 37 9 36.5523 9 36V33Z" fill="#EEBBC3"/>
<path d="M9 23C9 22.4477 9.44772 22 10 22H22C22.5523 22 23 22.4477 23 23V26C23 26.5523 22.5523 27 22 27H10C9.44772 27 9 26.5523 9 26V23Z" fill="#EEBBC3"/>
<path d="M29 23C29 22.4477 29.4477 22 30 22H33C33.5523 22 34 22.4477 34 23V26C34 26.5523 33.5523 27 33 27H30C29.4477 27 29 26.5523 29 26V23Z" fill="#EEBBC3"/>
<path d="M62 23C62 22.4477 62.4477 22 63 22H66C66.5523 22 67 22.4477 67 23V26C67 26.5523 66.5523 27 66 27H63C62.4477 27 62 26.5523 62 26V23Z" fill="#EEBBC3"/>
<path d="M51 23C51 22.4477 51.4477 22 52 22H55C55.5523 22 56 22.4477 56 23V26C56 26.5523 55.5523 27 55 27H52C51.4477 27 51 26.5523 51 26V23Z" fill="#EEBBC3"/>
<path d="M40 23C40 22.4477 40.4477 22 41 22H44C44.5523 22 45 22.4477 45 23V26C45 26.5523 44.5523 27 44 27H41C40.4477 27 40 26.5523 40 26V23Z" fill="#EEBBC3"/>
<path d="M9 14C9 13.4477 9.44772 13 10 13H17C17.5523 13 18 13.4477 18 14V17C18 17.5523 17.5523 18 17 18H10C9.44772 18 9 17.5523 9 17V14Z" fill="#EEBBC3"/>
<path d="M46 14C46 13.4477 46.4477 13 47 13H50C50.5523 13 51 13.4477 51 14V17C51 17.5523 50.5523 18 50 18H47C46.4477 18 46 17.5523 46 17V14Z" fill="#EEBBC3"/>
<path d="M67 14C67 13.4477 67.4477 13 68 13H77C77.5523 13 78 13.4477 78 14V17C78 17.5523 77.5523 18 77 18H68C67.4477 18 67 17.5523 67 17V14Z" fill="#EEBBC3"/>
<path d="M57 14C57 13.4477 57.4477 13 58 13H61C61.5523 13 62 13.4477 62 14V17C62 17.5523 61.5523 18 61 18H58C57.4477 18 57 17.5523 57 17V14Z" fill="#EEBBC3"/>
<path d="M35 14C35 13.4477 35.4477 13 36 13H39C39.5523 13 40 13.4477 40 14V17C40 17.5523 39.5523 18 39 18H36C35.4477 18 35 17.5523 35 17V14Z" fill="#EEBBC3"/>
<path d="M24 14C24 13.4477 24.4477 13 25 13H28C28.5523 13 29 13.4477 29 14V17C29 17.5523 28.5523 18 28 18H25C24.4477 18 24 17.5523 24 17V14Z" fill="#EEBBC3"/>
<path d="M71 33C71 32.4477 71.4477 32 72 32H78C78.5523 32 79 32.4477 79 33V36C79 36.5523 78.5523 37 78 37H72C71.4477 37 71 36.5523 71 36V33Z" fill="#EEBBC3"/>
<path d="M73 14C73 13.4477 73.4477 13 74 13H78C78.5523 13 79 13.4477 79 14V26C79 26.5523 78.5523 27 78 27H74C73.4477 27 73 26.5523 73 26V14Z" fill="#EEBBC3"/>
</svg>
