<svg width="305" height="53" viewBox="0 0 305 53" fill="none" xmlns="http://www.w3.org/2000/svg">
<path d="M110.688 36.0937L110.703 28.1094H111.672L119.359 19H127L116.672 31.0625H115.094L110.688 36.0937ZM104.656 43V11H111.313V43H104.656ZM119.656 43L112.594 32.5469L117.031 27.8437L127.453 43H119.656ZM140.215 43.4688C137.746 43.4688 135.621 42.9688 133.84 41.9688C132.069 40.9583 130.704 39.5312 129.746 37.6875C128.788 35.8333 128.309 33.6406 128.309 31.1094C128.309 28.6406 128.788 26.474 129.746 24.6094C130.704 22.7448 132.053 21.2917 133.793 20.25C135.543 19.2083 137.595 18.6875 139.949 18.6875C141.533 18.6875 143.007 18.9427 144.371 19.4531C145.746 19.9531 146.944 20.7083 147.965 21.7187C148.996 22.7292 149.798 24 150.371 25.5312C150.944 27.0521 151.23 28.8333 151.23 30.875V32.7031H130.965V28.5781H144.965C144.965 27.6198 144.757 26.7708 144.34 26.0313C143.923 25.2917 143.345 24.7135 142.605 24.2969C141.876 23.8698 141.027 23.6562 140.059 23.6562C139.048 23.6562 138.152 23.8906 137.371 24.3594C136.6 24.8177 135.996 25.4375 135.559 26.2187C135.121 26.9896 134.897 27.849 134.887 28.7969V32.7187C134.887 33.9062 135.105 34.9323 135.543 35.7969C135.991 36.6615 136.621 37.3281 137.434 37.7969C138.246 38.2656 139.21 38.5 140.324 38.5C141.064 38.5 141.741 38.3958 142.355 38.1875C142.97 37.9792 143.496 37.6667 143.934 37.25C144.371 36.8333 144.704 36.3229 144.934 35.7188L151.09 36.125C150.777 37.6042 150.137 38.8958 149.168 40C148.21 41.0937 146.97 41.9479 145.449 42.5625C143.939 43.1667 142.194 43.4688 140.215 43.4688ZM166.512 43.4688C164.043 43.4688 161.918 42.9688 160.137 41.9688C158.366 40.9583 157.001 39.5312 156.043 37.6875C155.085 35.8333 154.605 33.6406 154.605 31.1094C154.605 28.6406 155.085 26.474 156.043 24.6094C157.001 22.7448 158.35 21.2917 160.09 20.25C161.84 19.2083 163.892 18.6875 166.246 18.6875C167.829 18.6875 169.303 18.9427 170.668 19.4531C172.043 19.9531 173.241 20.7083 174.262 21.7187C175.293 22.7292 176.095 24 176.668 25.5312C177.241 27.0521 177.527 28.8333 177.527 30.875V32.7031H157.262V28.5781H171.262C171.262 27.6198 171.053 26.7708 170.637 26.0313C170.22 25.2917 169.642 24.7135 168.902 24.2969C168.173 23.8698 167.324 23.6562 166.355 23.6562C165.345 23.6562 164.449 23.8906 163.668 24.3594C162.897 24.8177 162.293 25.4375 161.855 26.2187C161.418 26.9896 161.194 27.849 161.184 28.7969V32.7187C161.184 33.9062 161.402 34.9323 161.84 35.7969C162.288 36.6615 162.918 37.3281 163.73 37.7969C164.543 38.2656 165.507 38.5 166.621 38.5C167.361 38.5 168.038 38.3958 168.652 38.1875C169.267 37.9792 169.793 37.6667 170.23 37.25C170.668 36.8333 171.001 36.3229 171.23 35.7188L177.387 36.125C177.074 37.6042 176.434 38.8958 175.465 40C174.507 41.0937 173.267 41.9479 171.746 42.5625C170.236 43.1667 168.491 43.4688 166.512 43.4688ZM181.996 43V11H188.652V23.0312H188.855C189.147 22.3854 189.569 21.7292 190.121 21.0625C190.684 20.3854 191.413 19.8229 192.309 19.375C193.215 18.9167 194.34 18.6875 195.684 18.6875C197.434 18.6875 199.048 19.1458 200.527 20.0625C202.007 20.9687 203.189 22.3385 204.074 24.1719C204.96 25.9948 205.402 28.2812 205.402 31.0312C205.402 33.7083 204.97 35.9687 204.105 37.8125C203.251 39.6458 202.085 41.0365 200.605 41.9844C199.137 42.9219 197.491 43.3906 195.668 43.3906C194.376 43.3906 193.277 43.1771 192.371 42.75C191.475 42.3229 190.741 41.7865 190.168 41.1406C189.595 40.4844 189.158 39.8229 188.855 39.1562H188.559V43H181.996ZM188.512 31C188.512 32.4271 188.71 33.6719 189.105 34.7344C189.501 35.7969 190.074 36.625 190.824 37.2187C191.574 37.8021 192.486 38.0937 193.559 38.0937C194.642 38.0937 195.559 37.7969 196.309 37.2031C197.059 36.599 197.626 35.7656 198.012 34.7031C198.408 33.6302 198.605 32.3958 198.605 31C198.605 29.6146 198.413 28.3958 198.027 27.3437C197.642 26.2917 197.074 25.4687 196.324 24.875C195.574 24.2812 194.652 23.9844 193.559 23.9844C192.475 23.9844 191.559 24.2708 190.809 24.8437C190.069 25.4167 189.501 26.2292 189.105 27.2812C188.71 28.3333 188.512 29.5729 188.512 31ZM222.609 19V24H208.156V19H222.609ZM211.438 13.25H218.094V35.625C218.094 36.2396 218.188 36.7187 218.375 37.0625C218.563 37.3958 218.823 37.6302 219.156 37.7656C219.5 37.901 219.896 37.9687 220.344 37.9687C220.656 37.9687 220.969 37.9427 221.281 37.8906C221.594 37.8281 221.833 37.7812 222 37.75L223.047 42.7031C222.714 42.8073 222.245 42.9271 221.641 43.0625C221.036 43.2083 220.302 43.2969 219.438 43.3281C217.833 43.3906 216.427 43.1771 215.219 42.6875C214.021 42.1979 213.089 41.4375 212.422 40.4062C211.755 39.375 211.427 38.0729 211.438 36.5V13.25ZM231.055 52C230.211 52 229.419 51.9323 228.68 51.7969C227.951 51.6719 227.346 51.5104 226.867 51.3125L228.367 46.3438C229.148 46.5833 229.852 46.7135 230.477 46.7344C231.112 46.7552 231.659 46.6094 232.117 46.2969C232.586 45.9844 232.966 45.4531 233.258 44.7031L233.648 43.6875L225.039 19H232.039L237.008 36.625H237.258L242.273 19H249.32L239.992 45.5938C239.544 46.8854 238.935 48.0104 238.164 48.9687C237.404 49.9375 236.44 50.6823 235.273 51.2031C234.107 51.7344 232.701 52 231.055 52ZM252.727 52V19H259.289V23.0312H259.586C259.878 22.3854 260.299 21.7292 260.852 21.0625C261.414 20.3854 262.143 19.8229 263.039 19.375C263.945 18.9167 265.07 18.6875 266.414 18.6875C268.164 18.6875 269.779 19.1458 271.258 20.0625C272.737 20.9687 273.919 22.3385 274.805 24.1719C275.69 25.9948 276.133 28.2812 276.133 31.0312C276.133 33.7083 275.701 35.9687 274.836 37.8125C273.982 39.6458 272.815 41.0365 271.336 41.9844C269.867 42.9219 268.221 43.3906 266.398 43.3906C265.107 43.3906 264.008 43.1771 263.102 42.75C262.206 42.3229 261.471 41.7865 260.898 41.1406C260.326 40.4844 259.888 39.8229 259.586 39.1562H259.383V52H252.727ZM259.242 31C259.242 32.4271 259.44 33.6719 259.836 34.7344C260.232 35.7969 260.805 36.625 261.555 37.2187C262.305 37.8021 263.216 38.0937 264.289 38.0937C265.372 38.0937 266.289 37.7969 267.039 37.2031C267.789 36.599 268.357 35.7656 268.742 34.7031C269.138 33.6302 269.336 32.3958 269.336 31C269.336 29.6146 269.143 28.3958 268.758 27.3437C268.372 26.2917 267.805 25.4687 267.055 24.875C266.305 24.2812 265.383 23.9844 264.289 23.9844C263.206 23.9844 262.289 24.2708 261.539 24.8437C260.799 25.4167 260.232 26.2292 259.836 27.2812C259.44 28.3333 259.242 29.5729 259.242 31ZM291.508 43.4688C289.039 43.4688 286.914 42.9688 285.133 41.9688C283.362 40.9583 281.997 39.5312 281.039 37.6875C280.081 35.8333 279.602 33.6406 279.602 31.1094C279.602 28.6406 280.081 26.474 281.039 24.6094C281.997 22.7448 283.346 21.2917 285.086 20.25C286.836 19.2083 288.888 18.6875 291.242 18.6875C292.826 18.6875 294.299 18.9427 295.664 19.4531C297.039 19.9531 298.237 20.7083 299.258 21.7187C300.289 22.7292 301.091 24 301.664 25.5312C302.237 27.0521 302.523 28.8333 302.523 30.875V32.7031H282.258V28.5781H296.258C296.258 27.6198 296.049 26.7708 295.633 26.0313C295.216 25.2917 294.638 24.7135 293.898 24.2969C293.169 23.8698 292.32 23.6562 291.352 23.6562C290.341 23.6562 289.445 23.8906 288.664 24.3594C287.893 24.8177 287.289 25.4375 286.852 26.2187C286.414 26.9896 286.19 27.849 286.18 28.7969V32.7187C286.18 33.9062 286.398 34.9323 286.836 35.7969C287.284 36.6615 287.914 37.3281 288.727 37.7969C289.539 38.2656 290.503 38.5 291.617 38.5C292.357 38.5 293.034 38.3958 293.648 38.1875C294.263 37.9792 294.789 37.6667 295.227 37.25C295.664 36.8333 295.997 36.3229 296.227 35.7188L302.383 36.125C302.07 37.6042 301.43 38.8958 300.461 40C299.503 41.0937 298.263 41.9479 296.742 42.5625C295.232 43.1667 293.487 43.4688 291.508 43.4688Z" fill="white"/>
<path fill-rule="evenodd" clip-rule="evenodd" d="M5 3C2.23858 3 0 5.23858 0 8V46C0 48.7614 2.23858 51 5 51H83C85.7614 51 88 48.7614 88 46V8C88 5.23858 85.7614 3 83 3H5ZM8 8C6.34315 8 5 9.34315 5 11V44C5 45.6569 6.34315 47 8 47H80C81.6569 47 83 45.6569 83 44V11C83 9.34315 81.6569 8 80 8H8Z" fill="#EEBBC3"/>
<path d="M21 36C21 35.4477 21.4477 35 22 35H66C66.5523 35 67 35.4477 67 36V39C67 39.5523 66.5523 40 66 40H22C21.4477 40 21 39.5523 21 39V36Z" fill="#EEBBC3"/>
<path d="M9 36C9 35.4477 9.44772 35 10 35H16C16.5523 35 17 35.4477 17 36V39C17 39.5523 16.5523 40 16 40H10C9.44772 40 9 39.5523 9 39V36Z" fill="#EEBBC3"/>
<path d="M9 26C9 25.4477 9.44772 25 10 25H22C22.5523 25 23 25.4477 23 26V29C23 29.5523 22.5523 30 22 30H10C9.44772 30 9 29.5523 9 29V26Z" fill="#EEBBC3"/>
<path d="M29 26C29 25.4477 29.4477 25 30 25H33C33.5523 25 34 25.4477 34 26V29C34 29.5523 33.5523 30 33 30H30C29.4477 30 29 29.5523 29 29V26Z" fill="#EEBBC3"/>
<path d="M62 26C62 25.4477 62.4477 25 63 25H66C66.5523 25 67 25.4477 67 26V29C67 29.5523 66.5523 30 66 30H63C62.4477 30 62 29.5523 62 29V26Z" fill="#EEBBC3"/>
<path d="M51 26C51 25.4477 51.4477 25 52 25H55C55.5523 25 56 25.4477 56 26V29C56 29.5523 55.5523 30 55 30H52C51.4477 30 51 29.5523 51 29V26Z" fill="#EEBBC3"/>
<path d="M40 26C40 25.4477 40.4477 25 41 25H44C44.5523 25 45 25.4477 45 26V29C45 29.5523 44.5523 30 44 30H41C40.4477 30 40 29.5523 40 29V26Z" fill="#EEBBC3"/>
<path d="M9 17C9 16.4477 9.44772 16 10 16H17C17.5523 16 18 16.4477 18 17V20C18 20.5523 17.5523 21 17 21H10C9.44772 21 9 20.5523 9 20V17Z" fill="#EEBBC3"/>
<path d="M46 17C46 16.4477 46.4477 16 47 16H50C50.5523 16 51 16.4477 51 17V20C51 20.5523 50.5523 21 50 21H47C46.4477 21 46 20.5523 46 20V17Z" fill="#EEBBC3"/>
<path d="M67 17C67 16.4477 67.4477 16 68 16H77C77.5523 16 78 16.4477 78 17V20C78 20.5523 77.5523 21 77 21H68C67.4477 21 67 20.5523 67 20V17Z" fill="#EEBBC3"/>
<path d="M57 17C57 16.4477 57.4477 16 58 16H61C61.5523 16 62 16.4477 62 17V20C62 20.5523 61.5523 21 61 21H58C57.4477 21 57 20.5523 57 20V17Z" fill="#EEBBC3"/>
<path d="M35 17C35 16.4477 35.4477 16 36 16H39C39.5523 16 40 16.4477 40 17V20C40 20.5523 39.5523 21 39 21H36C35.4477 21 35 20.5523 35 20V17Z" fill="#EEBBC3"/>
<path d="M24 17C24 16.4477 24.4477 16 25 16H28C28.5523 16 29 16.4477 29 17V20C29 20.5523 28.5523 21 28 21H25C24.4477 21 24 20.5523 24 20V17Z" fill="#EEBBC3"/>
<path d="M71 36C71 35.4477 71.4477 35 72 35H78C78.5523 35 79 35.4477 79 36V39C79 39.5523 78.5523 40 78 40H72C71.4477 40 71 39.5523 71 39V36Z" fill="#EEBBC3"/>
<path d="M73 17C73 16.4477 73.4477 16 74 16H78C78.5523 16 79 16.4477 79 17V29C79 29.5523 78.5523 30 78 30H74C73.4477 30 73 29.5523 73 29V17Z" fill="#EEBBC3"/>
</svg>
